<?xml version="1.0" encoding="UTF-8" standalone="no"?>
<svg
   xmlns:dc="http://purl.org/dc/elements/1.1/"
   xmlns:cc="http://creativecommons.org/ns#"
   xmlns:rdf="http://www.w3.org/1999/02/22-rdf-syntax-ns#"
   xmlns:svg="http://www.w3.org/2000/svg"
   xmlns="http://www.w3.org/2000/svg"
   xmlns:xlink="http://www.w3.org/1999/xlink"
   xmlns:sodipodi="http://sodipodi.sourceforge.net/DTD/sodipodi-0.dtd"
   xmlns:inkscape="http://www.inkscape.org/namespaces/inkscape"
   width="744.094488189"
   height="1052.36220472"
   id="svg5736"
   version="1.1"
   inkscape:version="0.91 r13725"
   sodipodi:docname="hexagon_pieces_01a.svg">
  <metadata
     id="metadata5961">
    <rdf:RDF>
      <cc:Work
         rdf:about="">
        <dc:format>image/svg+xml</dc:format>
        <dc:type
           rdf:resource="http://purl.org/dc/dcmitype/StillImage" />
        <dc:title></dc:title>
      </cc:Work>
    </rdf:RDF>
  </metadata>
  <sodipodi:namedview
     pagecolor="#ffffff"
     bordercolor="#666666"
     borderopacity="1"
     objecttolerance="10"
     gridtolerance="10"
     guidetolerance="10"
     inkscape:pageopacity="0"
     inkscape:pageshadow="2"
     inkscape:window-width="2880"
     inkscape:window-height="1590"
     id="namedview5959"
     showgrid="false"
     inkscape:zoom="1.3674"
     inkscape:cx="372.07751"
     inkscape:cy="467.78005"
     inkscape:window-x="0"
     inkscape:window-y="30"
     inkscape:window-maximized="1"
     inkscape:current-layer="g5933" />
  <desc
     id="desc5738">/home/evan/Documents/drawings/mobiusPuzzleGame/hexagon_pieces_01a.dxf - scale = 0.727461, origin = (-144.337567, -125.000000), auto = True</desc>
  <defs
     id="defs5740">
    <marker
       id="DistanceX"
       orient="auto"
       refX="0.0"
       refY="0.0"
       style="overflow:visible">
      <path
         d="M 3,-3 L -3,3 M 0,-5 L  0,5"
         style="stroke:#000000; stroke-width:0.5"
         id="path5743" />
    </marker>
    <pattern
       height="8"
       id="Hatch"
       patternUnits="userSpaceOnUse"
       width="8"
       x="0"
       y="0">
      <path
         d="M8 4 l-4,4"
         linecap="square"
         stroke="#000000"
         stroke-width="0.25"
         id="path5746" />
      <path
         d="M6 2 l-4,4"
         linecap="square"
         stroke="#000000"
         stroke-width="0.25"
         id="path5748" />
      <path
         d="M4 0 l-4,4"
         linecap="square"
         stroke="#000000"
         stroke-width="0.25"
         id="path5750" />
    </pattern>
    <symbol
       id="*Model_Space" />
    <symbol
       id="*Paper_Space" />
    <symbol
       id="*Paper_Space0" />
    <symbol
       id="arc_90">
      <path
         d="M 432.191686,813.904912 A 103.104757,103.104757 -0.000000 1 0 311.902803,813.904912"
         style="stroke:#000000;fill:none"
         id="path5756" />
      <path
         d="M 397.823433,730.159840 A 25.776189,25.776189 -0.000000 1 0 346.271055,730.159840 25.776189,25.776189 -0.000000 1 0 397.823433,730.159840 z"
         style="stroke:#000000;fill:none"
         id="path5758" />
      <path
         d="M 333.382960,855.777447 333.382960,1052.362205"
         style="stroke:#000000;fill:none"
         id="path5760" />
      <path
         d="M 432.191686,813.904912 A 51.552378,51.552378 -0.000000 0 0 410.711528,855.777447"
         style="stroke:#000000;fill:none"
         id="path5762" />
      <path
         d="M 410.711528,1052.362205 410.711528,855.777447"
         style="stroke:#000000;fill:none"
         id="path5764" />
      <path
         d="M 333.382960,855.777447 A 51.552378,51.552378 -0.000000 0 0 311.902803,813.904912"
         style="stroke:#000000;fill:none"
         id="path5766" />
    </symbol>
    <symbol
       id="shape">
      <path
         d="M 186.023622,407.957475 L 0.000000,730.159840 L 186.023622,1052.362205 L 558.070866,1052.362205 L 744.094488,730.159840 L 558.070866,407.957475 L 186.023622,407.957475 z"
         style="stroke:#000000;fill:none"
         id="path5769" />
    </symbol>
  </defs>
  <g
     inkscape:groupmode="layer"
     inkscape:label="0"
     id="g5771" />
  <g
     inkscape:groupmode="layer"
     inkscape:label="tile outline"
     id="g5773" />
  <g
     inkscape:groupmode="layer"
     inkscape:label="3 bridges"
     id="g5775">
    <use
       x="0.000000"
       y="0.000000"
       xlink:href="#shape"
       id="use5777" />
  </g>
  <g
     inkscape:groupmode="layer"
     inkscape:label="6.1.0"
     id="g5779">
    <use
       x="0.000000"
       y="-0.000000"
       xlink:href="#arc_90"
       id="use5781" />
  </g>
  <g
     inkscape:groupmode="layer"
     inkscape:label="6.2.a"
     id="g5783">
    <path
       d="M 410.711528,1052.362205 A 224.687906,224.687906 -0.000000 0 0 73.679669,857.776770"
       style="stroke:#000000;fill:none"
       id="path5785" />
    <path
       d="M 333.382960,1052.362205 A 147.359338,147.359338 -0.000000 0 0 112.343953,924.745274"
       style="stroke:#000000;fill:none"
       id="path5787" />
  </g>
  <g
     inkscape:groupmode="layer"
     inkscape:label="6.2.b"
     id="g5789">
    <path
       d="M 410.711528,1052.362205 A 596.735150,596.735150 0.0 0 0 112.343953,535.574406"
       style="stroke:#000000;fill:none"
       id="path5791" />
    <path
       d="M 333.382960,1052.362205 L 333.382960,1052.362205 A 519.406582,519.406582 0.0 0 0 73.679669,602.542910"
       style="stroke:#000000;fill:none"
       id="path5793" />
  </g>
  <g
     inkscape:groupmode="layer"
     inkscape:label="6.2.c"
     id="g5795">
    <path
       d="M 333.382960,1052.362205 333.382960,407.957475"
       style="stroke:#000000;fill:none"
       id="path5797" />
    <path
       d="M 410.711528,1052.362205 410.711528,407.957475"
       style="stroke:#000000;fill:none"
       id="path5799" />
  </g>
  <g
     inkscape:groupmode="layer"
     inkscape:label="6.3.a"
     id="g5801">
    <path
       d="M 410.711528,1052.362205 A 224.687906,224.687906 -0.000000 0 0 73.679669,857.776770"
       style="stroke:#000000;fill:none"
       id="path5803" />
    <path
       d="M 333.382960,1052.362205 A 147.359338,147.359338 -0.000000 0 0 112.343953,924.745274"
       style="stroke:#000000;fill:none"
       id="path5805" />
    <path
       d="M 670.414819,857.776770 A 224.687906,224.687906 -0.000000 0 0 333.382960,1052.362205"
       style="stroke:#000000;fill:none"
       id="path5807" />
    <path
       d="M 631.750535,924.745274 A 147.359338,147.359338 -0.000000 0 0 410.711528,1052.362205"
       style="stroke:#000000;fill:none"
       id="path5809" />
    <path
       d="M 670.414819,857.776770 A 596.735150,596.735150 0.0 0 0 73.679669,857.776770"
       style="stroke:#000000;fill:none"
       id="path5811" />
    <path
       d="M 631.750535,924.745274 L 631.750535,924.745274 A 519.406582,519.406582 0.0 0 0 112.343953,924.745274"
       style="stroke:#000000;fill:none"
       id="path5813" />
  </g>
  <g
     inkscape:groupmode="layer"
     inkscape:label="6.3.b"
     id="g5815">
    <path
       d="M 73.679669,602.542910 A 596.735150,596.735150 0.0 0 0 670.414819,602.542910"
       style="stroke:#000000;fill:none"
       id="path5817" />
    <path
       d="M 112.343953,535.574406 L 112.343953,535.574406 A 519.406582,519.406582 0.0 0 0 631.750535,535.574406"
       style="stroke:#000000;fill:none"
       id="path5819" />
    <path
       d="M 410.711528,1052.362205 A 596.735150,596.735150 0.0 0 0 112.343953,535.574406"
       style="stroke:#000000;fill:none"
       id="path5821" />
    <path
       d="M 333.382960,1052.362205 L 333.382960,1052.362205 A 519.406582,519.406582 0.0 0 0 73.679669,602.542910"
       style="stroke:#000000;fill:none"
       id="path5823" />
    <path
       d="M 631.750535,535.574406 A 596.735150,596.735150 0.0 0 0 333.382960,1052.362205"
       style="stroke:#000000;fill:none"
       id="path5825" />
    <path
       d="M 670.414819,602.542910 L 670.414819,602.542910 A 519.406582,519.406582 0.0 0 0 410.711528,1052.362205"
       style="stroke:#000000;fill:none"
       id="path5827" />
  </g>
  <g
     inkscape:groupmode="layer"
     inkscape:label="6.3.c"
     id="g5829">
    <path
       d="M 631.750535,924.745274 73.679669,602.542910"
       style="stroke:#000000;fill:none"
       id="path5831" />
    <path
       d="M 670.414819,857.776770 112.343953,535.574406"
       style="stroke:#000000;fill:none"
       id="path5833" />
    <path
       d="M 670.414819,857.776770 A 224.687906,224.687906 -0.000000 0 0 333.382960,1052.362205"
       style="stroke:#000000;fill:none"
       id="path5835" />
    <path
       d="M 631.750535,924.745274 A 147.359338,147.359338 -0.000000 0 0 410.711528,1052.362205"
       style="stroke:#000000;fill:none"
       id="path5837" />
    <path
       d="M 410.711528,1052.362205 A 596.735150,596.735150 0.0 0 0 112.343953,535.574406"
       style="stroke:#000000;fill:none"
       id="path5839" />
    <path
       d="M 333.382960,1052.362205 L 333.382960,1052.362205 A 519.406582,519.406582 0.0 0 0 73.679669,602.542910"
       style="stroke:#000000;fill:none"
       id="path5841" />
  </g>
  <g
     inkscape:groupmode="layer"
     inkscape:label="6.3.d"
     id="g5843">
    <path
       d="M 112.343953,924.745274 670.414819,602.542910"
       style="stroke:#000000;fill:none"
       id="path5845" />
    <path
       d="M 73.679669,857.776770 631.750535,535.574406"
       style="stroke:#000000;fill:none"
       id="path5847" />
    <path
       d="M 410.711528,1052.362205 A 224.687906,224.687906 -0.000000 0 0 73.679669,857.776770"
       style="stroke:#000000;fill:none"
       id="path5849" />
    <path
       d="M 333.382960,1052.362205 A 147.359338,147.359338 -0.000000 0 0 112.343953,924.745274"
       style="stroke:#000000;fill:none"
       id="path5851" />
    <path
       d="M 333.382960,1052.362205 A 596.735150,596.735150 0.0 0 1 631.750535,535.574406"
       style="stroke:#000000;fill:none"
       id="path5853" />
    <path
       d="M 410.711528,1052.362205 L 410.711528,1052.362205 A 519.406582,519.406582 0.0 0 1 670.414819,602.542910"
       style="stroke:#000000;fill:none"
       id="path5855" />
  </g>
  <g
     inkscape:groupmode="layer"
     inkscape:label="6.4.a"
     id="g5857">
    <path
       d="M 670.414819,857.776770 A 224.687906,224.687906 -0.000000 0 0 333.382960,1052.362205"
       style="stroke:#000000;fill:none"
       id="path5859" />
    <path
       d="M 631.750535,924.745274 A 147.359338,147.359338 -0.000000 0 0 410.711528,1052.362205"
       style="stroke:#000000;fill:none"
       id="path5861" />
    <path
       d="M 410.711528,1052.362205 A 224.687906,224.687906 -0.000000 0 0 73.679669,857.776770"
       style="stroke:#000000;fill:none"
       id="path5863" />
    <path
       d="M 333.382960,1052.362205 A 147.359338,147.359338 -0.000000 0 0 112.343953,924.745274"
       style="stroke:#000000;fill:none"
       id="path5865" />
    <path
       d="M 112.343953,924.745274 A 596.735150,596.735150 0.0 0 0 410.711528,407.957475"
       style="stroke:#000000;fill:none"
       id="path5867" />
    <path
       d="M 73.679669,857.776770 L 73.679669,857.776770 A 519.406582,519.406582 0.0 0 0 333.382960,407.957475"
       style="stroke:#000000;fill:none"
       id="path5869" />
    <path
       d="M 333.382960,407.957475 A 596.735150,596.735150 0.0 0 0 631.750535,924.745274"
       style="stroke:#000000;fill:none"
       id="path5871" />
    <path
       d="M 410.711528,407.957475 L 410.711528,407.957475 A 519.406582,519.406582 0.0 0 0 670.414819,857.776770"
       style="stroke:#000000;fill:none"
       id="path5873" />
  </g>
  <g
     inkscape:groupmode="layer"
     inkscape:label="6.4.b"
     id="g5875">
    <path
       d="M 670.414819,857.776770 A 224.687906,224.687906 -0.000000 0 0 333.382960,1052.362205"
       style="stroke:#000000;fill:none"
       id="path5877" />
    <path
       d="M 631.750535,924.745274 A 147.359338,147.359338 -0.000000 0 0 410.711528,1052.362205"
       style="stroke:#000000;fill:none"
       id="path5879" />
    <path
       d="M 73.679669,602.542910 A 224.687906,224.687906 -0.000000 0 0 410.711528,407.957475"
       style="stroke:#000000;fill:none"
       id="path5881" />
    <path
       d="M 112.343953,535.574406 A 147.359338,147.359338 -0.000000 0 0 333.382960,407.957475"
       style="stroke:#000000;fill:none"
       id="path5883" />
    <path
       d="M 410.711528,1052.362205 A 596.735150,596.735150 0.0 0 0 112.343953,535.574406"
       style="stroke:#000000;fill:none"
       id="path5885" />
    <path
       d="M 333.382960,1052.362205 L 333.382960,1052.362205 A 519.406582,519.406582 0.0 0 0 73.679669,602.542910"
       style="stroke:#000000;fill:none"
       id="path5887" />
    <path
       d="M 333.382960,407.957475 A 596.735150,596.735150 0.0 0 0 631.750535,924.745274"
       style="stroke:#000000;fill:none"
       id="path5889" />
    <path
       d="M 410.711528,407.957475 L 410.711528,407.957475 A 519.406582,519.406582 0.0 0 0 670.414819,857.776770"
       style="stroke:#000000;fill:none"
       id="path5891" />
  </g>
  <g
     inkscape:groupmode="layer"
     inkscape:label="6.4.c"
     id="g5893">
    <path
       d="M 410.711528,1052.362205 A 224.687906,224.687906 -0.000000 0 0 73.679669,857.776770"
       style="stroke:#000000;fill:none"
       id="path5895" />
    <path
       d="M 333.382960,1052.362205 A 147.359338,147.359338 -0.000000 0 0 112.343953,924.745274"
       style="stroke:#000000;fill:none"
       id="path5897" />
    <path
       d="M 670.414819,857.776770 A 224.687906,224.687906 -0.000000 0 0 333.382960,1052.362205"
       style="stroke:#000000;fill:none"
       id="path5899" />
    <path
       d="M 631.750535,924.745274 A 147.359338,147.359338 -0.000000 0 0 410.711528,1052.362205"
       style="stroke:#000000;fill:none"
       id="path5901" />
    <path
       d="M 73.679669,857.776770 631.750535,535.574406"
       style="stroke:#000000;fill:none"
       id="path5903" />
    <path
       d="M 112.343953,924.745274 670.414819,602.542910"
       style="stroke:#000000;fill:none"
       id="path5905" />
    <path
       d="M 631.750535,535.574406 A 224.687906,224.687906 -0.000000 0 0 631.750535,924.745274"
       style="stroke:#000000;fill:none"
       id="path5907" />
    <path
       d="M 670.414819,602.542910 A 147.359338,147.359338 -0.000000 0 0 670.414819,857.776770"
       style="stroke:#000000;fill:none"
       id="path5909" />
  </g>
  <g
     inkscape:groupmode="layer"
     inkscape:label="6.5.0"
     id="g5911">
    <path
       d="M 631.750535,535.574406 A 224.687906,224.687906 -0.000000 0 0 631.750535,924.745274"
       style="stroke:#000000;fill:none"
       id="path5913" />
    <path
       d="M 670.414819,602.542910 A 147.359338,147.359338 -0.000000 0 0 670.414819,857.776770"
       style="stroke:#000000;fill:none"
       id="path5915" />
    <path
       d="M 410.711528,1052.362205 A 224.687906,224.687906 -0.000000 0 0 73.679669,857.776770"
       style="stroke:#000000;fill:none"
       id="path5917" />
    <path
       d="M 333.382960,1052.362205 A 147.359338,147.359338 -0.000000 0 0 112.343953,924.745274"
       style="stroke:#000000;fill:none"
       id="path5919" />
    <path
       d="M 670.414819,857.776770 A 224.687906,224.687906 -0.000000 0 0 333.382960,1052.362205"
       style="stroke:#000000;fill:none"
       id="path5921" />
    <path
       d="M 631.750535,924.745274 A 147.359338,147.359338 -0.000000 0 0 410.711528,1052.362205"
       style="stroke:#000000;fill:none"
       id="path5923" />
    <path
       d="M 112.343953,924.745274 A 224.687906,224.687906 -0.000000 0 0 112.343953,535.574406"
       style="stroke:#000000;fill:none"
       id="path5925" />
    <path
       d="M 73.679669,857.776770 A 147.359338,147.359338 -0.000000 0 0 73.679669,602.542910"
       style="stroke:#000000;fill:none"
       id="path5927" />
    <path
       d="M 73.679669,602.542910 A 596.735150,596.735150 0.0 0 0 670.414819,602.542910"
       style="stroke:#000000;fill:none"
       id="path5929" />
    <path
       d="M 112.343953,535.574406 L 112.343953,535.574406 A 519.406582,519.406582 0.0 0 0 631.750535,535.574406"
       style="stroke:#000000;fill:none"
       id="path5931" />
  </g>
  <g
     inkscape:groupmode="layer"
     inkscape:label="6.6.0"
     id="g5933">
    <path
       d="M 410.711528,1052.362205 A 224.687906,224.687906 -0.000000 0 0 73.679669,857.776770"
       style="stroke:#FF7F00;fill:none"
       id="path5935" />
    <path
       d="M 333.382960,1052.362205 A 147.359338,147.359338 -0.000000 0 0 112.343953,924.745274"
       style="stroke:#FF7F00;fill:none"
       id="path5937" />
    <path
       d="M 670.414819,857.776770 A 224.687906,224.687906 -0.000000 0 0 333.382960,1052.362205"
       style="stroke:#FF7F00;fill:none"
       id="path5939" />
    <path
       d="M 631.750535,924.745274 A 147.359338,147.359338 -0.000000 0 0 410.711528,1052.362205"
       style="stroke:#FF7F00;fill:none"
       id="path5941" />
    <path
       d="M 73.679669,602.542910 A 224.687906,224.687906 -0.000000 0 0 410.711528,407.957475"
       style="stroke:#FF7F00;fill:none"
       id="path5943" />
    <path
       d="M 112.343953,535.574406 A 147.359338,147.359338 -0.000000 0 0 333.382960,407.957475"
       style="stroke:#FF7F00;fill:none"
       id="path5945" />
    <path
       d="M 333.382960,407.957475 A 224.687906,224.687906 -0.000000 0 0 670.414819,602.542910"
       style="stroke:#FF7F00;fill:none"
       id="path5947" />
    <path
       d="M 410.711528,407.957475 A 147.359338,147.359338 -0.000000 0 0 631.750535,535.574406"
       style="stroke:#FF7F00;fill:none"
       id="path5949" />
    <path
       d="M 112.343953,924.745274 A 224.687906,224.687906 -0.000000 0 0 112.343953,535.574406"
       style="stroke:#FF7F00;fill:none"
       id="path5951" />
    <path
       d="M 73.679669,857.776770 A 147.359338,147.359338 -0.000000 0 0 73.679669,602.542910"
       style="stroke:#FF7F00;fill:none"
       id="path5953" />
    <path
       d="M 631.750535,535.574406 A 224.687906,224.687906 -0.000000 0 0 631.750535,924.745274"
       style="stroke:#FF7F00;fill:none"
       id="path5955" />
    <path
       d="M 670.414819,602.542910 A 147.359338,147.359338 -0.000000 0 0 670.414819,857.776770"
       style="stroke:#FF7F00;fill:none"
       id="path5957" />
  </g>
</svg>
