<?xml version="1.0" encoding="UTF-8" standalone="no"?>
<svg
   xmlns:dc="http://purl.org/dc/elements/1.1/"
   xmlns:cc="http://creativecommons.org/ns#"
   xmlns:rdf="http://www.w3.org/1999/02/22-rdf-syntax-ns#"
   xmlns:svg="http://www.w3.org/2000/svg"
   xmlns="http://www.w3.org/2000/svg"
   xmlns:xlink="http://www.w3.org/1999/xlink"
   xmlns:sodipodi="http://sodipodi.sourceforge.net/DTD/sodipodi-0.dtd"
   xmlns:inkscape="http://www.inkscape.org/namespaces/inkscape"
   width="744.094488189"
   height="1052.36220472"
   id="svg4728"
   version="1.1"
   inkscape:version="0.91 r13725"
   sodipodi:docname="octagon_pieces_01a.svg">
  <metadata
     id="metadata5392">
    <rdf:RDF>
      <cc:Work
         rdf:about="">
        <dc:format>image/svg+xml</dc:format>
        <dc:type
           rdf:resource="http://purl.org/dc/dcmitype/StillImage" />
        <dc:title></dc:title>
      </cc:Work>
    </rdf:RDF>
  </metadata>
  <sodipodi:namedview
     pagecolor="#ffffff"
     bordercolor="#666666"
     borderopacity="1"
     objecttolerance="10"
     gridtolerance="10"
     guidetolerance="10"
     inkscape:pageopacity="0"
     inkscape:pageshadow="2"
     inkscape:window-width="2880"
     inkscape:window-height="1590"
     id="namedview5390"
     showgrid="false"
     inkscape:zoom="1"
     inkscape:cx="371.31593"
     inkscape:cy="526.18109"
     inkscape:window-x="0"
     inkscape:window-y="30"
     inkscape:window-maximized="1"
     inkscape:current-layer="g4828" />
  <desc
     id="desc4730">/home/evan/Documents/drawings/mobiusPuzzleGame/octagon_pieces_01a.dxf - scale = 0.840000, origin = (-125.000000, -125.000000), auto = True</desc>
  <defs
     id="defs4732">
    <marker
       id="DistanceX"
       orient="auto"
       refX="0.0"
       refY="0.0"
       style="overflow:visible">
      <path
         d="M 3,-3 L -3,3 M 0,-5 L  0,5"
         style="stroke:#000000; stroke-width:0.5"
         id="path4735" />
    </marker>
    <pattern
       height="8"
       id="Hatch"
       patternUnits="userSpaceOnUse"
       width="8"
       x="0"
       y="0">
      <path
         d="M8 4 l-4,4"
         linecap="square"
         stroke="#000000"
         stroke-width="0.25"
         id="path4738" />
      <path
         d="M6 2 l-4,4"
         linecap="square"
         stroke="#000000"
         stroke-width="0.25"
         id="path4740" />
      <path
         d="M4 0 l-4,4"
         linecap="square"
         stroke="#000000"
         stroke-width="0.25"
         id="path4742" />
    </pattern>
    <symbol
       id="*Model_Space" />
    <symbol
       id="*Paper_Space" />
    <symbol
       id="*Paper_Space0" />
    <symbol
       id="arc_90">
      <path
         d="M 441.496063,777.015440 A 119.055118,119.055118 -0.000000 1 0 302.598425,777.015440"
         style="stroke:#000000;fill:none"
         id="path4748" />
      <path
         d="M 401.811024,680.314961 A 29.763780,29.763780 -0.000000 1 0 342.283465,680.314961 29.763780,29.763780 -0.000000 1 0 401.811024,680.314961 z"
         style="stroke:#000000;fill:none"
         id="path4750" />
      <path
         d="M 327.401575,825.365680 327.401575,1052.362205"
         style="stroke:#000000;fill:none"
         id="path4752" />
      <path
         d="M 441.496063,777.015440 A 59.527559,59.527559 -0.000000 0 0 416.692913,825.365680"
         style="stroke:#000000;fill:none"
         id="path4754" />
      <path
         d="M 416.692913,1052.362205 416.692913,825.365680"
         style="stroke:#000000;fill:none"
         id="path4756" />
      <path
         d="M 327.401575,825.365680 A 59.527559,59.527559 -0.000000 0 0 302.598425,777.015440"
         style="stroke:#000000;fill:none"
         id="path4758" />
    </symbol>
  </defs>
  <g
     inkscape:groupmode="layer"
     inkscape:label="0"
     id="g4760" />
  <g
     inkscape:groupmode="layer"
     inkscape:label="tile outline"
     id="g4762" />
  <g
     inkscape:groupmode="layer"
     inkscape:label="8.1.0"
     id="g4764">
    <use
       x="0.000000"
       y="0.000000"
       xlink:href="#arc_90"
       id="use4766" />
  </g>
  <g
     inkscape:groupmode="layer"
     inkscape:label="8.2.a"
     id="g4768">
    <path
       d="M 327.401575,1052.362205 A 109.461345,109.461345 -0.000000 0 0 140.539370,974.961345"
       style="stroke:#000000;fill:none"
       id="path4770" />
    <path
       d="M 416.692913,1052.362205 A 198.752684,198.752684 -0.000000 0 0 77.400859,911.822834"
       style="stroke:#000000;fill:none"
       id="path4772" />
  </g>
  <g
     inkscape:groupmode="layer"
     inkscape:label="8.3.a"
     id="g4774">
    <path
       d="M 666.693629,911.822834 A 416.692913,416.692913 -0.000000 0 0 77.400859,911.822834"
       style="stroke:#000000;fill:none"
       id="path4776" />
    <path
       d="M 603.555118,974.961345 A 327.401575,327.401575 -0.000000 0 0 140.539370,974.961345"
       style="stroke:#000000;fill:none"
       id="path4778" />
    <path
       d="M 603.555118,974.961345 A 109.461345,109.461345 -0.000000 0 0 416.692913,1052.362205"
       style="stroke:#000000;fill:none"
       id="path4780" />
    <path
       d="M 666.693629,911.822834 A 198.752684,198.752684 -0.000000 0 0 327.401575,1052.362205"
       style="stroke:#000000;fill:none"
       id="path4782" />
    <path
       d="M 327.401575,1052.362205 A 109.461345,109.461345 -0.000000 0 0 140.539370,974.961345"
       style="stroke:#000000;fill:none"
       id="path4784" />
    <path
       d="M 416.692913,1052.362205 A 198.752684,198.752684 -0.000000 0 0 77.400859,911.822834"
       style="stroke:#000000;fill:none"
       id="path4786" />
  </g>
  <g
     inkscape:groupmode="layer"
     inkscape:label="8.4.a"
     id="g4788">
    <path
       d="M 666.693629,911.822834 A 853.555833,853.555833 0.0 0 1 416.692913,308.267717"
       style="stroke:#000000;fill:none"
       id="path4790" />
    <path
       d="M 603.555118,974.961345 A 942.847172,942.847172 0.0 0 1 327.401575,308.267717"
       style="stroke:#000000;fill:none"
       id="path4792" />
    <path
       d="M 77.400859,911.822834 A 853.555833,853.555833 0.0 0 0 327.401575,308.267717"
       style="stroke:#000000;fill:none"
       id="path4794" />
    <path
       d="M 140.539370,974.961345 A 942.847172,942.847172 0.0 0 0 416.692913,308.267717"
       style="stroke:#000000;fill:none"
       id="path4796" />
    <path
       d="M 603.555118,974.961345 A 109.461345,109.461345 -0.000000 0 0 416.692913,1052.362205"
       style="stroke:#000000;fill:none"
       id="path4798" />
    <path
       d="M 666.693629,911.822834 A 198.752684,198.752684 -0.000000 0 0 327.401575,1052.362205"
       style="stroke:#000000;fill:none"
       id="path4800" />
    <path
       d="M 327.401575,1052.362205 A 109.461345,109.461345 -0.000000 0 0 140.539370,974.961345"
       style="stroke:#000000;fill:none"
       id="path4802" />
    <path
       d="M 416.692913,1052.362205 A 198.752684,198.752684 -0.000000 0 0 77.400859,911.822834"
       style="stroke:#000000;fill:none"
       id="path4804" />
  </g>
  <g
     inkscape:groupmode="layer"
     inkscape:label="8.5.a"
     id="g4806">
    <path
       d="M 0.000000,724.960630 A 416.692913,416.692913 -0.000000 0 0 416.692913,308.267717"
       style="stroke:#000000;fill:none"
       id="path4808" />
    <path
       d="M 0.000000,635.669291 A 327.401575,327.401575 -0.000000 0 0 327.401575,308.267717"
       style="stroke:#000000;fill:none"
       id="path4810" />
    <path
       d="M 327.401575,308.267717 A 416.692913,416.692913 -0.000000 0 0 744.094488,724.960630"
       style="stroke:#000000;fill:none"
       id="path4812" />
    <path
       d="M 416.692913,308.267717 A 327.401575,327.401575 -0.000000 0 0 744.094488,635.669291"
       style="stroke:#000000;fill:none"
       id="path4814" />
    <path
       d="M 666.693629,911.822834 A 416.692913,416.692913 -0.000000 0 0 77.400859,911.822834"
       style="stroke:#000000;fill:none"
       id="path4816" />
    <path
       d="M 603.555118,974.961345 A 327.401575,327.401575 -0.000000 0 0 140.539370,974.961345"
       style="stroke:#000000;fill:none"
       id="path4818" />
    <path
       d="M 77.400859,911.822834 A 109.461345,109.461345 -0.000000 0 0 0.000000,724.960630"
       style="stroke:#000000;fill:none"
       id="path4820" />
    <path
       d="M 140.539370,974.961345 A 198.752684,198.752684 -0.000000 0 0 0.000000,635.669291"
       style="stroke:#000000;fill:none"
       id="path4822" />
    <path
       d="M 744.094488,724.960630 A 109.461345,109.461345 -0.000000 0 0 666.693629,911.822834"
       style="stroke:#000000;fill:none"
       id="path4824" />
    <path
       d="M 744.094488,635.669291 A 198.752684,198.752684 -0.000000 0 0 603.555118,974.961345"
       style="stroke:#000000;fill:none"
       id="path4826" />
  </g>
  <g
     inkscape:groupmode="layer"
     inkscape:label="8.6.a"
     id="g4828">
    <path
       d="M 603.555118,974.961345 A 109.461345,109.461345 -0.000000 0 0 416.692913,1052.362205"
       style="stroke:#000000;fill:none"
       id="path4830" />
    <path
       d="M 666.693629,911.822834 A 198.752684,198.752684 -0.000000 0 0 327.401575,1052.362205"
       style="stroke:#000000;fill:none"
       id="path4832" />
    <path
       d="M 327.401575,1052.362205 A 109.461345,109.461345 -0.000000 0 0 140.539370,974.961345"
       style="stroke:#000000;fill:none"
       id="path4834" />
    <path
       d="M 416.692913,1052.362205 A 198.752684,198.752684 -0.000000 0 0 77.400859,911.822834"
       style="stroke:#000000;fill:none"
       id="path4836" />
    <path
       d="M 327.401575,308.267717 A 416.692913,416.692913 -0.000000 0 0 744.094488,724.960630"
       style="stroke:#000000;fill:none"
       id="path4838" />
    <path
       d="M 416.692913,308.267717 A 327.401575,327.401575 -0.000000 0 0 744.094488,635.669291"
       style="stroke:#000000;fill:none"
       id="path4840" />
    <path
       d="M 0.000000,724.960630 A 416.692913,416.692913 -0.000000 0 0 416.692913,308.267717"
       style="stroke:#000000;fill:none"
       id="path4842" />
    <path
       d="M 0.000000,635.669291 A 327.401575,327.401575 -0.000000 0 0 327.401575,308.267717"
       style="stroke:#000000;fill:none"
       id="path4844" />
    <path
       d="M 744.094488,724.960630 A 109.461345,109.461345 -0.000000 0 0 666.693629,911.822834"
       style="stroke:#000000;fill:none"
       id="path4846" />
    <path
       d="M 744.094488,635.669291 A 198.752684,198.752684 -0.000000 0 0 603.555118,974.961345"
       style="stroke:#000000;fill:none"
       id="path4848" />
    <path
       d="M 77.400859,911.822834 A 109.461345,109.461345 -0.000000 0 0 0.000000,724.960630"
       style="stroke:#000000;fill:none"
       id="path4850" />
    <path
       d="M 140.539370,974.961345 A 198.752684,198.752684 -0.000000 0 0 0.000000,635.669291"
       style="stroke:#000000;fill:none"
       id="path4852" />
  </g>
  <g
     inkscape:groupmode="layer"
     inkscape:label="8.7.0"
     id="g4854">
    <path
       d="M 327.401575,1052.362205 A 109.461345,109.461345 -0.000000 0 0 140.539370,974.961345"
       style="stroke:#000000;fill:none"
       id="path4856" />
    <path
       d="M 416.692913,1052.362205 A 198.752684,198.752684 -0.000000 0 0 77.400859,911.822834"
       style="stroke:#000000;fill:none"
       id="path4858" />
    <path
       d="M 603.555118,974.961345 A 109.461345,109.461345 -0.000000 0 0 416.692913,1052.362205"
       style="stroke:#000000;fill:none"
       id="path4860" />
    <path
       d="M 666.693629,911.822834 A 198.752684,198.752684 -0.000000 0 0 327.401575,1052.362205"
       style="stroke:#000000;fill:none"
       id="path4862" />
    <path
       d="M 77.400859,448.807087 A 416.692913,416.692913 -0.000000 0 0 666.693629,448.807087"
       style="stroke:#000000;fill:none"
       id="path4864" />
    <path
       d="M 140.539370,385.668576 A 327.401575,327.401575 -0.000000 0 0 603.555118,385.668576"
       style="stroke:#000000;fill:none"
       id="path4866" />
    <path
       d="M 0.000000,635.669291 A 109.461345,109.461345 -0.000000 0 0 77.400859,448.807087"
       style="stroke:#000000;fill:none"
       id="path4868" />
    <path
       d="M 0.000000,724.960630 A 198.752684,198.752684 -0.000000 0 0 140.539370,385.668576"
       style="stroke:#000000;fill:none"
       id="path4870" />
    <path
       d="M 77.400859,911.822834 A 109.461345,109.461345 -0.000000 0 0 0.000000,724.960630"
       style="stroke:#000000;fill:none"
       id="path4872" />
    <path
       d="M 140.539370,974.961345 A 198.752684,198.752684 -0.000000 0 0 0.000000,635.669291"
       style="stroke:#000000;fill:none"
       id="path4874" />
    <path
       d="M 666.693629,448.807087 A 109.461345,109.461345 -0.000000 0 0 744.094488,635.669291"
       style="stroke:#000000;fill:none"
       id="path4876" />
    <path
       d="M 603.555118,385.668576 A 198.752684,198.752684 -0.000000 0 0 744.094488,724.960630"
       style="stroke:#000000;fill:none"
       id="path4878" />
    <path
       d="M 744.094488,724.960630 A 109.461345,109.461345 -0.000000 0 0 666.693629,911.822834"
       style="stroke:#000000;fill:none"
       id="path4880" />
    <path
       d="M 744.094488,635.669291 A 198.752684,198.752684 -0.000000 0 0 603.555118,974.961345"
       style="stroke:#000000;fill:none"
       id="path4882" />
  </g>
  <g
     inkscape:groupmode="layer"
     inkscape:label="8.8.0"
     id="g4884">
    <path
       d="M 744.094488,724.960630 A 109.461345,109.461345 -0.000000 0 0 666.693629,911.822834"
       style="stroke:#000000;fill:none"
       id="path4886" />
    <path
       d="M 744.094488,635.669291 A 198.752684,198.752684 -0.000000 0 0 603.555118,974.961345"
       style="stroke:#000000;fill:none"
       id="path4888" />
    <path
       d="M 603.555118,974.961345 A 109.461345,109.461345 -0.000000 0 0 416.692913,1052.362205"
       style="stroke:#000000;fill:none"
       id="path4890" />
    <path
       d="M 666.693629,911.822834 A 198.752684,198.752684 -0.000000 0 0 327.401575,1052.362205"
       style="stroke:#000000;fill:none"
       id="path4892" />
    <path
       d="M 77.400859,911.822834 A 109.461345,109.461345 -0.000000 0 0 0.000000,724.960630"
       style="stroke:#000000;fill:none"
       id="path4894" />
    <path
       d="M 140.539370,974.961345 A 198.752684,198.752684 -0.000000 0 0 0.000000,635.669291"
       style="stroke:#000000;fill:none"
       id="path4896" />
    <path
       d="M 327.401575,1052.362205 A 109.461345,109.461345 -0.000000 0 0 140.539370,974.961345"
       style="stroke:#000000;fill:none"
       id="path4898" />
    <path
       d="M 416.692913,1052.362205 A 198.752684,198.752684 -0.000000 0 0 77.400859,911.822834"
       style="stroke:#000000;fill:none"
       id="path4900" />
    <path
       d="M 416.692913,308.267717 A 109.461345,109.461345 -0.000000 0 0 603.555118,385.668576"
       style="stroke:#000000;fill:none"
       id="path4902" />
    <path
       d="M 327.401575,308.267717 A 198.752684,198.752684 -0.000000 0 0 666.693629,448.807087"
       style="stroke:#000000;fill:none"
       id="path4904" />
    <path
       d="M 140.539370,385.668576 A 109.461345,109.461345 -0.000000 0 0 327.401575,308.267717"
       style="stroke:#000000;fill:none"
       id="path4906" />
    <path
       d="M 77.400859,448.807087 A 198.752684,198.752684 -0.000000 0 0 416.692913,308.267717"
       style="stroke:#000000;fill:none"
       id="path4908" />
    <path
       d="M 666.693629,448.807087 A 109.461345,109.461345 -0.000000 0 0 744.094488,635.669291"
       style="stroke:#000000;fill:none"
       id="path4910" />
    <path
       d="M 603.555118,385.668576 A 198.752684,198.752684 -0.000000 0 0 744.094488,724.960630"
       style="stroke:#000000;fill:none"
       id="path4912" />
    <path
       d="M 0.000000,635.669291 A 109.461345,109.461345 -0.000000 0 0 77.400859,448.807087"
       style="stroke:#000000;fill:none"
       id="path4914" />
    <path
       d="M 0.000000,724.960630 A 198.752684,198.752684 -0.000000 0 0 140.539370,385.668576"
       style="stroke:#000000;fill:none"
       id="path4916" />
  </g>
  <g
     inkscape:groupmode="layer"
     inkscape:label="8.6.b"
     id="g4918">
    <path
       d="M 327.401575,1052.362205 A 109.461345,109.461345 -0.000000 0 0 140.539370,974.961345"
       style="stroke:#000000;fill:none"
       id="path4920" />
    <path
       d="M 416.692913,1052.362205 A 198.752684,198.752684 -0.000000 0 0 77.400859,911.822834"
       style="stroke:#000000;fill:none"
       id="path4922" />
    <path
       d="M 140.539370,974.961345 A 416.692913,416.692913 -0.000000 0 0 140.539370,385.668576"
       style="stroke:#000000;fill:none"
       id="path4924" />
    <path
       d="M 77.400859,911.822834 A 327.401575,327.401575 -0.000000 0 0 77.400859,448.807087"
       style="stroke:#000000;fill:none"
       id="path4926" />
    <path
       d="M 603.555118,974.961345 A 109.461345,109.461345 -0.000000 0 0 416.692913,1052.362205"
       style="stroke:#000000;fill:none"
       id="path4928" />
    <path
       d="M 666.693629,911.822834 A 198.752684,198.752684 -0.000000 0 0 327.401575,1052.362205"
       style="stroke:#000000;fill:none"
       id="path4930" />
    <path
       d="M 603.555118,385.668576 A 416.692913,416.692913 -0.000000 0 0 603.555118,974.961345"
       style="stroke:#000000;fill:none"
       id="path4932" />
    <path
       d="M 666.693629,448.807087 A 327.401575,327.401575 -0.000000 0 0 666.693629,911.822834"
       style="stroke:#000000;fill:none"
       id="path4934" />
    <path
       d="M 416.692913,308.267717 A 109.461345,109.461345 -0.000000 0 0 603.555118,385.668576"
       style="stroke:#000000;fill:none"
       id="path4936" />
    <path
       d="M 327.401575,308.267717 A 198.752684,198.752684 -0.000000 0 0 666.693629,448.807087"
       style="stroke:#000000;fill:none"
       id="path4938" />
    <path
       d="M 140.539370,385.668576 A 109.461345,109.461345 -0.000000 0 0 327.401575,308.267717"
       style="stroke:#000000;fill:none"
       id="path4940" />
    <path
       d="M 77.400859,448.807087 A 198.752684,198.752684 -0.000000 0 0 416.692913,308.267717"
       style="stroke:#000000;fill:none"
       id="path4942" />
  </g>
  <g
     inkscape:groupmode="layer"
     inkscape:label="8.6.c"
     id="g4944">
    <path
       d="M 603.555118,385.668576 A 416.692913,416.692913 -0.000000 0 0 603.555118,974.961345"
       style="stroke:#000000;fill:none"
       id="path4946" />
    <path
       d="M 666.693629,448.807087 A 327.401575,327.401575 -0.000000 0 0 666.693629,911.822834"
       style="stroke:#000000;fill:none"
       id="path4948" />
    <path
       d="M 603.555118,974.961345 A 109.461345,109.461345 -0.000000 0 0 416.692913,1052.362205"
       style="stroke:#000000;fill:none"
       id="path4950" />
    <path
       d="M 666.693629,911.822834 A 198.752684,198.752684 -0.000000 0 0 327.401575,1052.362205"
       style="stroke:#000000;fill:none"
       id="path4952" />
    <path
       d="M 327.401575,1052.362205 A 109.461345,109.461345 -0.000000 0 0 140.539370,974.961345"
       style="stroke:#000000;fill:none"
       id="path4954" />
    <path
       d="M 416.692913,1052.362205 A 198.752684,198.752684 -0.000000 0 0 77.400859,911.822834"
       style="stroke:#000000;fill:none"
       id="path4956" />
    <path
       d="M 0.000000,724.960630 A 416.692913,416.692913 -0.000000 0 0 416.692913,308.267717"
       style="stroke:#000000;fill:none"
       id="path4958" />
    <path
       d="M 0.000000,635.669291 A 327.401575,327.401575 -0.000000 0 0 327.401575,308.267717"
       style="stroke:#000000;fill:none"
       id="path4960" />
    <path
       d="M 416.692913,308.267717 A 109.461345,109.461345 -0.000000 0 0 603.555118,385.668576"
       style="stroke:#000000;fill:none"
       id="path4962" />
    <path
       d="M 327.401575,308.267717 A 198.752684,198.752684 -0.000000 0 0 666.693629,448.807087"
       style="stroke:#000000;fill:none"
       id="path4964" />
    <path
       d="M 77.400859,911.822834 A 109.461345,109.461345 -0.000000 0 0 0.000000,724.960630"
       style="stroke:#000000;fill:none"
       id="path4966" />
    <path
       d="M 140.539370,974.961345 A 198.752684,198.752684 -0.000000 0 0 0.000000,635.669291"
       style="stroke:#000000;fill:none"
       id="path4968" />
  </g>
  <g
     inkscape:groupmode="layer"
     inkscape:label="8.6.d"
     id="g4970">
    <path
       d="M 0.000000,635.669291 A 853.555833,853.555833 0.0 0 0 603.555118,385.668576"
       style="stroke:#000000;fill:none"
       id="path4972" />
    <path
       d="M 0.000000,724.960630 A 942.847172,942.847172 0.0 0 0 666.693629,448.807087"
       style="stroke:#000000;fill:none"
       id="path4974" />
    <path
       d="M 77.400859,911.822834 A 109.461345,109.461345 -0.000000 0 0 0.000000,724.960630"
       style="stroke:#000000;fill:none"
       id="path4976" />
    <path
       d="M 140.539370,974.961345 A 198.752684,198.752684 -0.000000 0 0 0.000000,635.669291"
       style="stroke:#000000;fill:none"
       id="path4978" />
    <path
       d="M 327.401575,1052.362205 A 109.461345,109.461345 -0.000000 0 0 140.539370,974.961345"
       style="stroke:#000000;fill:none"
       id="path4980" />
    <path
       d="M 416.692913,1052.362205 A 198.752684,198.752684 -0.000000 0 0 77.400859,911.822834"
       style="stroke:#000000;fill:none"
       id="path4982" />
    <path
       d="M 744.094488,724.960630 A 109.461345,109.461345 -0.000000 0 0 666.693629,911.822834"
       style="stroke:#000000;fill:none"
       id="path4984" />
    <path
       d="M 744.094488,635.669291 A 198.752684,198.752684 -0.000000 0 0 603.555118,974.961345"
       style="stroke:#000000;fill:none"
       id="path4986" />
    <path
       d="M 666.693629,448.807087 A 109.461345,109.461345 -0.000000 0 0 744.094488,635.669291"
       style="stroke:#000000;fill:none"
       id="path4988" />
    <path
       d="M 603.555118,385.668576 A 198.752684,198.752684 -0.000000 0 0 744.094488,724.960630"
       style="stroke:#000000;fill:none"
       id="path4990" />
    <path
       d="M 603.555118,974.961345 A 109.461345,109.461345 -0.000000 0 0 416.692913,1052.362205"
       style="stroke:#000000;fill:none"
       id="path4992" />
    <path
       d="M 666.693629,911.822834 A 198.752684,198.752684 -0.000000 0 0 327.401575,1052.362205"
       style="stroke:#000000;fill:none"
       id="path4994" />
  </g>
  <g
     inkscape:groupmode="layer"
     inkscape:label="8.5.b"
     id="g4996">
    <path
       d="M 744.094488,724.960630 0.000000,724.960630"
       style="stroke:#000000;fill:none"
       id="path4998" />
    <path
       d="M 744.094488,635.669291 0.000000,635.669291"
       style="stroke:#000000;fill:none"
       id="path5000" />
    <path
       d="M 327.401575,1052.362205 A 109.461345,109.461345 -0.000000 0 0 140.539370,974.961345"
       style="stroke:#000000;fill:none"
       id="path5002" />
    <path
       d="M 416.692913,1052.362205 A 198.752684,198.752684 -0.000000 0 0 77.400859,911.822834"
       style="stroke:#000000;fill:none"
       id="path5004" />
    <path
       d="M 77.400859,911.822834 A 109.461345,109.461345 -0.000000 0 0 0.000000,724.960630"
       style="stroke:#000000;fill:none"
       id="path5006" />
    <path
       d="M 140.539370,974.961345 A 198.752684,198.752684 -0.000000 0 0 0.000000,635.669291"
       style="stroke:#000000;fill:none"
       id="path5008" />
    <path
       d="M 744.094488,724.960630 A 109.461345,109.461345 -0.000000 0 0 666.693629,911.822834"
       style="stroke:#000000;fill:none"
       id="path5010" />
    <path
       d="M 744.094488,635.669291 A 198.752684,198.752684 -0.000000 0 0 603.555118,974.961345"
       style="stroke:#000000;fill:none"
       id="path5012" />
    <path
       d="M 603.555118,974.961345 A 109.461345,109.461345 -0.000000 0 0 416.692913,1052.362205"
       style="stroke:#000000;fill:none"
       id="path5014" />
    <path
       d="M 666.693629,911.822834 A 198.752684,198.752684 -0.000000 0 0 327.401575,1052.362205"
       style="stroke:#000000;fill:none"
       id="path5016" />
  </g>
  <g
     inkscape:groupmode="layer"
     inkscape:label="8.5.c"
     id="g5018">
    <path
       d="M 603.555118,974.961345 A 109.461345,109.461345 -0.000000 0 0 416.692913,1052.362205"
       style="stroke:#000000;fill:none"
       id="path5020" />
    <path
       d="M 666.693629,911.822834 A 198.752684,198.752684 -0.000000 0 0 327.401575,1052.362205"
       style="stroke:#000000;fill:none"
       id="path5022" />
    <path
       d="M 327.401575,1052.362205 A 109.461345,109.461345 -0.000000 0 0 140.539370,974.961345"
       style="stroke:#000000;fill:none"
       id="path5024" />
    <path
       d="M 416.692913,1052.362205 A 198.752684,198.752684 -0.000000 0 0 77.400859,911.822834"
       style="stroke:#000000;fill:none"
       id="path5026" />
    <path
       d="M 140.539370,974.961345 A 416.692913,416.692913 -0.000000 0 0 140.539370,385.668576"
       style="stroke:#000000;fill:none"
       id="path5028" />
    <path
       d="M 77.400859,911.822834 A 327.401575,327.401575 -0.000000 0 0 77.400859,448.807087"
       style="stroke:#000000;fill:none"
       id="path5030" />
    <path
       d="M 603.555118,385.668576 A 416.692913,416.692913 -0.000000 0 0 603.555118,974.961345"
       style="stroke:#000000;fill:none"
       id="path5032" />
    <path
       d="M 666.693629,448.807087 A 327.401575,327.401575 -0.000000 0 0 666.693629,911.822834"
       style="stroke:#000000;fill:none"
       id="path5034" />
    <path
       d="M 77.400859,448.807087 A 416.692913,416.692913 -0.000000 0 0 666.693629,448.807087"
       style="stroke:#000000;fill:none"
       id="path5036" />
    <path
       d="M 140.539370,385.668576 A 327.401575,327.401575 -0.000000 0 0 603.555118,385.668576"
       style="stroke:#000000;fill:none"
       id="path5038" />
  </g>
  <g
     inkscape:groupmode="layer"
     inkscape:label="8.5.d"
     id="g5040">
    <path
       d="M 603.555118,974.961345 A 109.461345,109.461345 -0.000000 0 0 416.692913,1052.362205"
       style="stroke:#000000;fill:none"
       id="path5042" />
    <path
       d="M 666.693629,911.822834 A 198.752684,198.752684 -0.000000 0 0 327.401575,1052.362205"
       style="stroke:#000000;fill:none"
       id="path5044" />
    <path
       d="M 327.401575,1052.362205 A 109.461345,109.461345 -0.000000 0 0 140.539370,974.961345"
       style="stroke:#000000;fill:none"
       id="path5046" />
    <path
       d="M 416.692913,1052.362205 A 198.752684,198.752684 -0.000000 0 0 77.400859,911.822834"
       style="stroke:#000000;fill:none"
       id="path5048" />
    <path
       d="M 327.401575,308.267717 A 416.692913,416.692913 -0.000000 0 0 744.094488,724.960630"
       style="stroke:#000000;fill:none"
       id="path5050" />
    <path
       d="M 416.692913,308.267717 A 327.401575,327.401575 -0.000000 0 0 744.094488,635.669291"
       style="stroke:#000000;fill:none"
       id="path5052" />
    <path
       d="M 744.094488,724.960630 A 109.461345,109.461345 -0.000000 0 0 666.693629,911.822834"
       style="stroke:#000000;fill:none"
       id="path5054" />
    <path
       d="M 744.094488,635.669291 A 198.752684,198.752684 -0.000000 0 0 603.555118,974.961345"
       style="stroke:#000000;fill:none"
       id="path5056" />
    <path
       d="M 77.400859,911.822834 A 853.555833,853.555833 0.0 0 0 327.401575,308.267717"
       style="stroke:#000000;fill:none"
       id="path5058" />
    <path
       d="M 140.539370,974.961345 A 942.847172,942.847172 0.0 0 0 416.692913,308.267717"
       style="stroke:#000000;fill:none"
       id="path5060" />
  </g>
  <g
     inkscape:groupmode="layer"
     inkscape:label="8.5.e"
     id="g5062">
    <path
       d="M 603.555118,974.961345 A 109.461345,109.461345 -0.000000 0 0 416.692913,1052.362205"
       style="stroke:#000000;fill:none"
       id="path5064" />
    <path
       d="M 666.693629,911.822834 A 198.752684,198.752684 -0.000000 0 0 327.401575,1052.362205"
       style="stroke:#000000;fill:none"
       id="path5066" />
    <path
       d="M 327.401575,1052.362205 A 109.461345,109.461345 -0.000000 0 0 140.539370,974.961345"
       style="stroke:#000000;fill:none"
       id="path5068" />
    <path
       d="M 416.692913,1052.362205 A 198.752684,198.752684 -0.000000 0 0 77.400859,911.822834"
       style="stroke:#000000;fill:none"
       id="path5070" />
    <path
       d="M 77.400859,911.822834 A 109.461345,109.461345 -0.000000 0 0 0.000000,724.960630"
       style="stroke:#000000;fill:none"
       id="path5072" />
    <path
       d="M 140.539370,974.961345 A 198.752684,198.752684 -0.000000 0 0 0.000000,635.669291"
       style="stroke:#000000;fill:none"
       id="path5074" />
    <path
       d="M 0.000000,724.960630 A 416.692913,416.692913 -0.000000 0 0 416.692913,308.267717"
       style="stroke:#000000;fill:none"
       id="path5076" />
    <path
       d="M 0.000000,635.669291 A 327.401575,327.401575 -0.000000 0 0 327.401575,308.267717"
       style="stroke:#000000;fill:none"
       id="path5078" />
    <path
       d="M 666.693629,911.822834 A 853.555833,853.555833 0.0 0 1 416.692913,308.267717"
       style="stroke:#000000;fill:none"
       id="path5080" />
    <path
       d="M 603.555118,974.961345 A 942.847172,942.847172 0.0 0 1 327.401575,308.267717"
       style="stroke:#000000;fill:none"
       id="path5082" />
  </g>
  <g
     inkscape:groupmode="layer"
     inkscape:label="8.5.f"
     id="g5084">
    <path
       d="M 140.539370,385.668576 A 109.461345,109.461345 -0.000000 0 0 327.401575,308.267717"
       style="stroke:#000000;fill:none"
       id="path5086" />
    <path
       d="M 77.400859,448.807087 A 198.752684,198.752684 -0.000000 0 0 416.692913,308.267717"
       style="stroke:#000000;fill:none"
       id="path5088" />
    <path
       d="M 327.401575,308.267717 A 416.692913,416.692913 -0.000000 0 0 744.094488,724.960630"
       style="stroke:#000000;fill:none"
       id="path5090" />
    <path
       d="M 416.692913,308.267717 A 327.401575,327.401575 -0.000000 0 0 744.094488,635.669291"
       style="stroke:#000000;fill:none"
       id="path5092" />
    <path
       d="M 327.401575,1052.362205 A 853.555833,853.555833 0.0 0 0 77.400859,448.807087"
       style="stroke:#000000;fill:none"
       id="path5094" />
    <path
       d="M 416.692913,1052.362205 A 942.847172,942.847172 0.0 0 0 140.539370,385.668576"
       style="stroke:#000000;fill:none"
       id="path5096" />
    <path
       d="M 744.094488,724.960630 A 109.461345,109.461345 -0.000000 0 0 666.693629,911.822834"
       style="stroke:#000000;fill:none"
       id="path5098" />
    <path
       d="M 744.094488,635.669291 A 198.752684,198.752684 -0.000000 0 0 603.555118,974.961345"
       style="stroke:#000000;fill:none"
       id="path5100" />
    <path
       d="M 603.555118,974.961345 A 109.461345,109.461345 -0.000000 0 0 416.692913,1052.362205"
       style="stroke:#000000;fill:none"
       id="path5102" />
    <path
       d="M 666.693629,911.822834 A 198.752684,198.752684 -0.000000 0 0 327.401575,1052.362205"
       style="stroke:#000000;fill:none"
       id="path5104" />
  </g>
  <g
     inkscape:groupmode="layer"
     inkscape:label="8.5.g"
     id="g5106">
    <path
       d="M 0.000000,724.960630 A 416.692913,416.692913 -0.000000 0 0 416.692913,308.267717"
       style="stroke:#000000;fill:none"
       id="path5108" />
    <path
       d="M 0.000000,635.669291 A 327.401575,327.401575 -0.000000 0 0 327.401575,308.267717"
       style="stroke:#000000;fill:none"
       id="path5110" />
    <path
       d="M 416.692913,1052.362205 A 853.555833,853.555833 0.0 0 1 666.693629,448.807087"
       style="stroke:#000000;fill:none"
       id="path5112" />
    <path
       d="M 327.401575,1052.362205 A 942.847172,942.847172 0.0 0 1 603.555118,385.668576"
       style="stroke:#000000;fill:none"
       id="path5114" />
    <path
       d="M 416.692913,308.267717 A 109.461345,109.461345 -0.000000 0 0 603.555118,385.668576"
       style="stroke:#000000;fill:none"
       id="path5116" />
    <path
       d="M 327.401575,308.267717 A 198.752684,198.752684 -0.000000 0 0 666.693629,448.807087"
       style="stroke:#000000;fill:none"
       id="path5118" />
    <path
       d="M 77.400859,911.822834 A 109.461345,109.461345 -0.000000 0 0 0.000000,724.960630"
       style="stroke:#000000;fill:none"
       id="path5120" />
    <path
       d="M 140.539370,974.961345 A 198.752684,198.752684 -0.000000 0 0 0.000000,635.669291"
       style="stroke:#000000;fill:none"
       id="path5122" />
    <path
       d="M 327.401575,1052.362205 A 109.461345,109.461345 -0.000000 0 0 140.539370,974.961345"
       style="stroke:#000000;fill:none"
       id="path5124" />
    <path
       d="M 416.692913,1052.362205 A 198.752684,198.752684 -0.000000 0 0 77.400859,911.822834"
       style="stroke:#000000;fill:none"
       id="path5126" />
  </g>
  <g
     inkscape:groupmode="layer"
     inkscape:label="8.4.b"
     id="g5128">
    <path
       d="M 0.000000,724.960630 A 416.692913,416.692913 -0.000000 0 0 416.692913,308.267717"
       style="stroke:#000000;fill:none"
       id="path5130" />
    <path
       d="M 0.000000,635.669291 A 327.401575,327.401575 -0.000000 0 0 327.401575,308.267717"
       style="stroke:#000000;fill:none"
       id="path5132" />
    <path
       d="M 416.692913,1052.362205 A 416.692913,416.692913 -0.000000 0 0 0.000000,635.669291"
       style="stroke:#000000;fill:none"
       id="path5134" />
    <path
       d="M 327.401575,1052.362205 A 327.401575,327.401575 -0.000000 0 0 0.000000,724.960630"
       style="stroke:#000000;fill:none"
       id="path5136" />
    <path
       d="M 327.401575,308.267717 A 416.692913,416.692913 -0.000000 0 0 744.094488,724.960630"
       style="stroke:#000000;fill:none"
       id="path5138" />
    <path
       d="M 416.692913,308.267717 A 327.401575,327.401575 -0.000000 0 0 744.094488,635.669291"
       style="stroke:#000000;fill:none"
       id="path5140" />
    <path
       d="M 744.094488,635.669291 A 416.692913,416.692913 -0.000000 0 0 327.401575,1052.362205"
       style="stroke:#000000;fill:none"
       id="path5142" />
    <path
       d="M 744.094488,724.960630 A 327.401575,327.401575 -0.000000 0 0 416.692913,1052.362205"
       style="stroke:#000000;fill:none"
       id="path5144" />
  </g>
  <g
     inkscape:groupmode="layer"
     inkscape:label="8.4.c"
     id="g5146">
    <path
       d="M 744.094488,724.960630 A 109.461345,109.461345 -0.000000 0 0 666.693629,911.822834"
       style="stroke:#000000;fill:none"
       id="path5148" />
    <path
       d="M 744.094488,635.669291 A 198.752684,198.752684 -0.000000 0 0 603.555118,974.961345"
       style="stroke:#000000;fill:none"
       id="path5150" />
    <path
       d="M 77.400859,911.822834 A 109.461345,109.461345 -0.000000 0 0 0.000000,724.960630"
       style="stroke:#000000;fill:none"
       id="path5152" />
    <path
       d="M 140.539370,974.961345 A 198.752684,198.752684 -0.000000 0 0 0.000000,635.669291"
       style="stroke:#000000;fill:none"
       id="path5154" />
    <path
       d="M 666.693629,911.822834 A 416.692913,416.692913 -0.000000 0 0 77.400859,911.822834"
       style="stroke:#000000;fill:none"
       id="path5156" />
    <path
       d="M 603.555118,974.961345 A 327.401575,327.401575 -0.000000 0 0 140.539370,974.961345"
       style="stroke:#000000;fill:none"
       id="path5158" />
    <path
       d="M 744.094488,724.960630 0.000000,724.960630"
       style="stroke:#000000;fill:none"
       id="path5160" />
    <path
       d="M 744.094488,635.669291 0.000000,635.669291"
       style="stroke:#000000;fill:none"
       id="path5162" />
  </g>
  <g
     inkscape:groupmode="layer"
     inkscape:label="8.4.d"
     id="g5164">
    <path
       d="M 0.000000,635.669291 A 853.555833,853.555833 0.0 0 0 603.555118,385.668576"
       style="stroke:#000000;fill:none"
       id="path5166" />
    <path
       d="M 0.000000,724.960630 A 942.847172,942.847172 0.0 0 0 666.693629,448.807087"
       style="stroke:#000000;fill:none"
       id="path5168" />
    <path
       d="M 603.555118,385.668576 A 416.692913,416.692913 -0.000000 0 0 603.555118,974.961345"
       style="stroke:#000000;fill:none"
       id="path5170" />
    <path
       d="M 666.693629,448.807087 A 327.401575,327.401575 -0.000000 0 0 666.693629,911.822834"
       style="stroke:#000000;fill:none"
       id="path5172" />
    <path
       d="M 416.692913,1052.362205 A 416.692913,416.692913 -0.000000 0 0 0.000000,635.669291"
       style="stroke:#000000;fill:none"
       id="path5174" />
    <path
       d="M 327.401575,1052.362205 A 327.401575,327.401575 -0.000000 0 0 0.000000,724.960630"
       style="stroke:#000000;fill:none"
       id="path5176" />
    <path
       d="M 603.555118,974.961345 A 109.461345,109.461345 -0.000000 0 0 416.692913,1052.362205"
       style="stroke:#000000;fill:none"
       id="path5178" />
    <path
       d="M 666.693629,911.822834 A 198.752684,198.752684 -0.000000 0 0 327.401575,1052.362205"
       style="stroke:#000000;fill:none"
       id="path5180" />
  </g>
  <g
     inkscape:groupmode="layer"
     inkscape:label="8.4.e"
     id="g5182">
    <path
       d="M 140.539370,385.668576 A 109.461345,109.461345 -0.000000 0 0 327.401575,308.267717"
       style="stroke:#000000;fill:none"
       id="path5184" />
    <path
       d="M 77.400859,448.807087 A 198.752684,198.752684 -0.000000 0 0 416.692913,308.267717"
       style="stroke:#000000;fill:none"
       id="path5186" />
    <path
       d="M 603.555118,974.961345 A 109.461345,109.461345 -0.000000 0 0 416.692913,1052.362205"
       style="stroke:#000000;fill:none"
       id="path5188" />
    <path
       d="M 666.693629,911.822834 A 198.752684,198.752684 -0.000000 0 0 327.401575,1052.362205"
       style="stroke:#000000;fill:none"
       id="path5190" />
    <path
       d="M 327.401575,308.267717 A 942.847172,942.847172 -0.000000 0 0 603.555118,974.961345"
       style="stroke:#000000;fill:none"
       id="path5192" />
    <path
       d="M 416.692913,308.267717 A 853.555833,853.555833 -0.000000 0 0 666.693629,911.822834"
       style="stroke:#000000;fill:none"
       id="path5194" />
    <path
       d="M 327.401575,1052.362205 A 853.555833,853.555833 0.0 0 0 77.400859,448.807087"
       style="stroke:#000000;fill:none"
       id="path5196" />
    <path
       d="M 416.692913,1052.362205 A 942.847172,942.847172 0.0 0 0 140.539370,385.668576"
       style="stroke:#000000;fill:none"
       id="path5198" />
  </g>
  <g
     inkscape:groupmode="layer"
     inkscape:label="8.4.f"
     id="g5200">
    <path
       d="M 744.094488,724.960630 0.000000,724.960630"
       style="stroke:#000000;fill:none"
       id="path5202" />
    <path
       d="M 744.094488,635.669291 0.000000,635.669291"
       style="stroke:#000000;fill:none"
       id="path5204" />
    <path
       d="M 744.094488,724.960630 A 109.461345,109.461345 -0.000000 0 0 666.693629,911.822834"
       style="stroke:#000000;fill:none"
       id="path5206" />
    <path
       d="M 744.094488,635.669291 A 198.752684,198.752684 -0.000000 0 0 603.555118,974.961345"
       style="stroke:#000000;fill:none"
       id="path5208" />
    <path
       d="M 603.555118,974.961345 A 109.461345,109.461345 -0.000000 0 0 416.692913,1052.362205"
       style="stroke:#000000;fill:none"
       id="path5210" />
    <path
       d="M 666.693629,911.822834 A 198.752684,198.752684 -0.000000 0 0 327.401575,1052.362205"
       style="stroke:#000000;fill:none"
       id="path5212" />
    <path
       d="M 416.692913,1052.362205 A 416.692913,416.692913 -0.000000 0 0 0.000000,635.669291"
       style="stroke:#000000;fill:none"
       id="path5214" />
    <path
       d="M 327.401575,1052.362205 A 327.401575,327.401575 -0.000000 0 0 0.000000,724.960630"
       style="stroke:#000000;fill:none"
       id="path5216" />
  </g>
  <g
     inkscape:groupmode="layer"
     inkscape:label="8.4.g"
     id="g5218">
    <path
       d="M 77.400859,448.807087 A 416.692913,416.692913 -0.000000 0 0 666.693629,448.807087"
       style="stroke:#000000;fill:none"
       id="path5220" />
    <path
       d="M 140.539370,385.668576 A 327.401575,327.401575 -0.000000 0 0 603.555118,385.668576"
       style="stroke:#000000;fill:none"
       id="path5222" />
    <path
       d="M 603.555118,385.668576 A 416.692913,416.692913 -0.000000 0 0 603.555118,974.961345"
       style="stroke:#000000;fill:none"
       id="path5224" />
    <path
       d="M 666.693629,448.807087 A 327.401575,327.401575 -0.000000 0 0 666.693629,911.822834"
       style="stroke:#000000;fill:none"
       id="path5226" />
    <path
       d="M 327.401575,1052.362205 A 853.555833,853.555833 0.0 0 0 77.400859,448.807087"
       style="stroke:#000000;fill:none"
       id="path5228" />
    <path
       d="M 416.692913,1052.362205 A 942.847172,942.847172 0.0 0 0 140.539370,385.668576"
       style="stroke:#000000;fill:none"
       id="path5230" />
    <path
       d="M 603.555118,974.961345 A 109.461345,109.461345 -0.000000 0 0 416.692913,1052.362205"
       style="stroke:#000000;fill:none"
       id="path5232" />
    <path
       d="M 666.693629,911.822834 A 198.752684,198.752684 -0.000000 0 0 327.401575,1052.362205"
       style="stroke:#000000;fill:none"
       id="path5234" />
    <path
       d="M 0.000000,724.960630 744.094488,724.960630"
       style="stroke:#000000;fill:none"
       id="path5236" />
    <path
       d="M 0.000000,635.669291 744.094488,635.669291"
       style="stroke:#000000;fill:none"
       id="path5238" />
    <path
       d="M 77.400859,911.822834 A 109.461345,109.461345 -0.000000 0 0 0.000000,724.960630"
       style="stroke:#000000;fill:none"
       id="path5240" />
    <path
       d="M 140.539370,974.961345 A 198.752684,198.752684 -0.000000 0 0 0.000000,635.669291"
       style="stroke:#000000;fill:none"
       id="path5242" />
    <path
       d="M 327.401575,1052.362205 A 109.461345,109.461345 -0.000000 0 0 140.539370,974.961345"
       style="stroke:#000000;fill:none"
       id="path5244" />
    <path
       d="M 416.692913,1052.362205 A 198.752684,198.752684 -0.000000 0 0 77.400859,911.822834"
       style="stroke:#000000;fill:none"
       id="path5246" />
    <path
       d="M 744.094488,635.669291 A 416.692913,416.692913 -0.000000 0 0 327.401575,1052.362205"
       style="stroke:#000000;fill:none"
       id="path5248" />
    <path
       d="M 744.094488,724.960630 A 327.401575,327.401575 -0.000000 0 0 416.692913,1052.362205"
       style="stroke:#000000;fill:none"
       id="path5250" />
  </g>
  <g
     inkscape:groupmode="layer"
     inkscape:label="8.4.h"
     id="g5252">
    <path
       d="M 416.692913,1052.362205 A 853.555833,853.555833 0.0 0 1 666.693629,448.807087"
       style="stroke:#000000;fill:none"
       id="path5254" />
    <path
       d="M 327.401575,1052.362205 A 942.847172,942.847172 0.0 0 1 603.555118,385.668576"
       style="stroke:#000000;fill:none"
       id="path5256" />
    <path
       d="M 77.400859,448.807087 A 416.692913,416.692913 -0.000000 0 0 666.693629,448.807087"
       style="stroke:#000000;fill:none"
       id="path5258" />
    <path
       d="M 140.539370,385.668576 A 327.401575,327.401575 -0.000000 0 0 603.555118,385.668576"
       style="stroke:#000000;fill:none"
       id="path5260" />
    <path
       d="M 140.539370,974.961345 A 416.692913,416.692913 -0.000000 0 0 140.539370,385.668576"
       style="stroke:#000000;fill:none"
       id="path5262" />
    <path
       d="M 77.400859,911.822834 A 327.401575,327.401575 -0.000000 0 0 77.400859,448.807087"
       style="stroke:#000000;fill:none"
       id="path5264" />
    <path
       d="M 327.401575,1052.362205 A 109.461345,109.461345 -0.000000 0 0 140.539370,974.961345"
       style="stroke:#000000;fill:none"
       id="path5266" />
    <path
       d="M 416.692913,1052.362205 A 198.752684,198.752684 -0.000000 0 0 77.400859,911.822834"
       style="stroke:#000000;fill:none"
       id="path5268" />
  </g>
  <g
     inkscape:groupmode="layer"
     inkscape:label="8.3.b"
     id="g5270">
    <path
       d="M 666.693629,911.822834 A 853.555833,853.555833 0.0 0 1 416.692913,308.267717"
       style="stroke:#000000;fill:none"
       id="path5272" />
    <path
       d="M 603.555118,974.961345 A 942.847172,942.847172 0.0 0 1 327.401575,308.267717"
       style="stroke:#000000;fill:none"
       id="path5274" />
    <path
       d="M 77.400859,911.822834 A 853.555833,853.555833 0.0 0 0 327.401575,308.267717"
       style="stroke:#000000;fill:none"
       id="path5276" />
    <path
       d="M 140.539370,974.961345 A 942.847172,942.847172 0.0 0 0 416.692913,308.267717"
       style="stroke:#000000;fill:none"
       id="path5278" />
    <path
       d="M 666.693629,911.822834 A 416.692913,416.692913 -0.000000 0 0 77.400859,911.822834"
       style="stroke:#000000;fill:none"
       id="path5280" />
    <path
       d="M 603.555118,974.961345 A 327.401575,327.401575 -0.000000 0 0 140.539370,974.961345"
       style="stroke:#000000;fill:none"
       id="path5282" />
  </g>
  <g
     inkscape:groupmode="layer"
     inkscape:label="8.3.c"
     id="g5284">
    <path
       d="M 744.094488,724.960630 0.000000,724.960630"
       style="stroke:#000000;fill:none"
       id="path5286" />
    <path
       d="M 744.094488,635.669291 0.000000,635.669291"
       style="stroke:#000000;fill:none"
       id="path5288" />
    <path
       d="M 416.692913,1052.362205 A 416.692913,416.692913 -0.000000 0 0 0.000000,635.669291"
       style="stroke:#000000;fill:none"
       id="path5290" />
    <path
       d="M 327.401575,1052.362205 A 327.401575,327.401575 -0.000000 0 0 0.000000,724.960630"
       style="stroke:#000000;fill:none"
       id="path5292" />
    <path
       d="M 744.094488,635.669291 A 416.692913,416.692913 -0.000000 0 0 327.401575,1052.362205"
       style="stroke:#000000;fill:none"
       id="path5294" />
    <path
       d="M 744.094488,724.960630 A 327.401575,327.401575 -0.000000 0 0 416.692913,1052.362205"
       style="stroke:#000000;fill:none"
       id="path5296" />
  </g>
  <g
     inkscape:groupmode="layer"
     inkscape:label="8.3.d"
     id="g5298">
    <path
       d="M 744.094488,724.960630 A 853.555833,853.555833 0.0 0 0 140.539370,974.961345"
       style="stroke:#000000;fill:none"
       id="path5300" />
    <path
       d="M 744.094488,635.669291 A 942.847172,942.847172 0.0 0 0 77.400859,911.822834"
       style="stroke:#000000;fill:none"
       id="path5302" />
    <path
       d="M 603.555118,974.961345 A 109.461345,109.461345 -0.000000 0 0 416.692913,1052.362205"
       style="stroke:#000000;fill:none"
       id="path5304" />
    <path
       d="M 666.693629,911.822834 A 198.752684,198.752684 -0.000000 0 0 327.401575,1052.362205"
       style="stroke:#000000;fill:none"
       id="path5306" />
    <path
       d="M 327.401575,1052.362205 A 109.461345,109.461345 -0.000000 0 0 140.539370,974.961345"
       style="stroke:#000000;fill:none"
       id="path5308" />
    <path
       d="M 416.692913,1052.362205 A 198.752684,198.752684 -0.000000 0 0 77.400859,911.822834"
       style="stroke:#000000;fill:none"
       id="path5310" />
    <path
       d="M 744.094488,724.960630 A 109.461345,109.461345 -0.000000 0 0 666.693629,911.822834"
       style="stroke:#000000;fill:none"
       id="path5312" />
    <path
       d="M 744.094488,635.669291 A 198.752684,198.752684 -0.000000 0 0 603.555118,974.961345"
       style="stroke:#000000;fill:none"
       id="path5314" />
  </g>
  <g
     inkscape:groupmode="layer"
     inkscape:label="8.3.e"
     id="g5316">
    <path
       d="M 327.401575,1052.362205 A 109.461345,109.461345 -0.000000 0 0 140.539370,974.961345"
       style="stroke:#000000;fill:none"
       id="path5318" />
    <path
       d="M 416.692913,1052.362205 A 198.752684,198.752684 -0.000000 0 0 77.400859,911.822834"
       style="stroke:#000000;fill:none"
       id="path5320" />
    <path
       d="M 416.692913,1052.362205 A 853.555833,853.555833 0.0 0 1 666.693629,448.807087"
       style="stroke:#000000;fill:none"
       id="path5322" />
    <path
       d="M 327.401575,1052.362205 A 942.847172,942.847172 0.0 0 1 603.555118,385.668576"
       style="stroke:#000000;fill:none"
       id="path5324" />
    <path
       d="M 77.400859,911.822834 603.555118,385.668576"
       style="stroke:#000000;fill:none"
       id="path5326" />
    <path
       d="M 140.539370,974.961345 666.693629,448.807087"
       style="stroke:#000000;fill:none"
       id="path5328" />
  </g>
  <g
     inkscape:groupmode="layer"
     inkscape:label="8.3.f"
     id="g5330">
    <path
       d="M 327.401575,1052.362205 A 853.555833,853.555833 0.0 0 0 77.400859,448.807087"
       style="stroke:#000000;fill:none"
       id="path5332" />
    <path
       d="M 603.555118,974.961345 A 109.461345,109.461345 -0.000000 0 0 416.692913,1052.362205"
       style="stroke:#000000;fill:none"
       id="path5334" />
    <path
       d="M 666.693629,911.822834 A 198.752684,198.752684 -0.000000 0 0 327.401575,1052.362205"
       style="stroke:#000000;fill:none"
       id="path5336" />
    <path
       d="M 416.692913,1052.362205 A 942.847172,942.847172 -0.000000 0 0 140.539370,385.668576"
       style="stroke:#000000;fill:none"
       id="path5338" />
    <path
       d="M 666.693629,911.822834 140.539370,385.668576"
       style="stroke:#000000;fill:none"
       id="path5340" />
    <path
       d="M 603.555118,974.961345 77.400859,448.807087"
       style="stroke:#000000;fill:none"
       id="path5342" />
  </g>
  <g
     inkscape:groupmode="layer"
     inkscape:label="8.2.b"
     id="g5344">
    <path
       d="M 416.692913,1052.362205 A 416.692913,416.692913 -0.000000 0 0 0.000000,635.669291"
       style="stroke:#000000;fill:none"
       id="path5346" />
    <path
       d="M 327.401575,1052.362205 A 327.401575,327.401575 -0.000000 0 0 0.000000,724.960630"
       style="stroke:#000000;fill:none"
       id="path5348" />
  </g>
  <g
     inkscape:groupmode="layer"
     inkscape:label="8.2.c"
     id="g5350">
    <path
       d="M 327.401575,1052.362205 A 853.555833,853.555833 0.0 0 0 77.400859,448.807087"
       style="stroke:#000000;fill:none"
       id="path5352" />
    <path
       d="M 416.692913,1052.362205 A 942.847172,942.847172 0.0 0 0 140.539370,385.668576"
       style="stroke:#000000;fill:none"
       id="path5354" />
  </g>
  <g
     inkscape:groupmode="layer"
     inkscape:label="8.2.d"
     id="g5356">
    <path
       d="M 327.401575,1052.362205 327.401575,308.267717"
       style="stroke:#000000;fill:none"
       id="path5358" />
    <path
       d="M 416.692913,1052.362205 416.692913,308.267717"
       style="stroke:#000000;fill:none"
       id="path5360" />
  </g>
  <g
     inkscape:groupmode="layer"
     inkscape:label="8.3.g"
     id="g5362">
    <path
       d="M 140.539370,974.961345 A 853.555833,853.555833 0.0 0 1 744.094488,724.960630"
       style="stroke:#000000;fill:none"
       id="path5364" />
    <path
       d="M 77.400859,911.822834 A 942.847172,942.847172 0.0 0 1 744.094488,635.669291"
       style="stroke:#000000;fill:none"
       id="path5366" />
    <path
       d="M 744.094488,635.669291 A 416.692913,416.692913 -0.000000 0 0 327.401575,1052.362205"
       style="stroke:#000000;fill:none"
       id="path5368" />
    <path
       d="M 744.094488,724.960630 A 327.401575,327.401575 -0.000000 0 0 416.692913,1052.362205"
       style="stroke:#000000;fill:none"
       id="path5370" />
    <path
       d="M 327.401575,1052.362205 A 109.461345,109.461345 -0.000000 0 0 140.539370,974.961345"
       style="stroke:#000000;fill:none"
       id="path5372" />
    <path
       d="M 416.692913,1052.362205 A 198.752684,198.752684 -0.000000 0 0 77.400859,911.822834"
       style="stroke:#000000;fill:none"
       id="path5374" />
  </g>
  <g
     inkscape:groupmode="layer"
     inkscape:label="8.3.h"
     id="g5376">
    <path
       d="M 603.555118,974.961345 A 853.555833,853.555833 0.0 0 0 0.000000,724.960630"
       style="stroke:#000000;fill:none"
       id="path5378" />
    <path
       d="M 666.693629,911.822834 A 942.847172,942.847172 0.0 0 0 0.000000,635.669291"
       style="stroke:#000000;fill:none"
       id="path5380" />
    <path
       d="M 416.692913,1052.362205 A 416.692913,416.692913 -0.000000 0 0 0.000000,635.669291"
       style="stroke:#000000;fill:none"
       id="path5382" />
    <path
       d="M 327.401575,1052.362205 A 327.401575,327.401575 -0.000000 0 0 0.000000,724.960630"
       style="stroke:#000000;fill:none"
       id="path5384" />
    <path
       d="M 603.555118,974.961345 A 109.461345,109.461345 -0.000000 0 0 416.692913,1052.362205"
       style="stroke:#000000;fill:none"
       id="path5386" />
    <path
       d="M 666.693629,911.822834 A 198.752684,198.752684 -0.000000 0 0 327.401575,1052.362205"
       style="stroke:#000000;fill:none"
       id="path5388" />
  </g>
</svg>
