<?xml version="1.0" encoding="UTF-8" standalone="no"?>
<svg
   xmlns:dc="http://purl.org/dc/elements/1.1/"
   xmlns:cc="http://creativecommons.org/ns#"
   xmlns:rdf="http://www.w3.org/1999/02/22-rdf-syntax-ns#"
   xmlns:svg="http://www.w3.org/2000/svg"
   xmlns="http://www.w3.org/2000/svg"
   xmlns:xlink="http://www.w3.org/1999/xlink"
   xmlns:sodipodi="http://sodipodi.sourceforge.net/DTD/sodipodi-0.dtd"
   xmlns:inkscape="http://www.inkscape.org/namespaces/inkscape"
   width="744.094488189"
   height="1052.36220472"
   id="svg6009"
   version="1.1"
   inkscape:version="0.91 r13725"
   sodipodi:docname="square_pieces_01a.svg">
  <metadata
     id="metadata6123">
    <rdf:RDF>
      <cc:Work
         rdf:about="">
        <dc:format>image/svg+xml</dc:format>
        <dc:type
           rdf:resource="http://purl.org/dc/dcmitype/StillImage" />
        <dc:title></dc:title>
      </cc:Work>
    </rdf:RDF>
  </metadata>
  <style
     type="text/css"
     id="style4591">
    .shape { fill:none;fill-rule:evenodd;stroke:#000000;stroke-width:10;stroke-linecap:butt;stroke-linejoin:miter;stroke-miterlimit:4;stroke-dasharray:none;stroke-opacity:1; }
	.br1 { stroke:#0055ff; }
	.br2 { stroke:#ff0000; }
	.br3 { stroke:#ffff00; }
	.br4 { stroke:#ff00ff; }
	.br5 { stroke:#0000ff; }
	.br6 { stroke:#550055; }
	.br7 { stroke:#007722; }
	.br8 { stroke:#ff3355; }
    .outer { fill:#000000; }
    .inner { fill:#ffffff; }
	.hide { display: none; }
  </style>
  <sodipodi:namedview
     pagecolor="#ffffff"
     bordercolor="#666666"
     borderopacity="1"
     objecttolerance="10"
     gridtolerance="10"
     guidetolerance="10"
     inkscape:pageopacity="0"
     inkscape:pageshadow="2"
     inkscape:window-width="2880"
     inkscape:window-height="1590"
     id="namedview6121"
     showgrid="false"
     inkscape:zoom="1.3674"
     inkscape:cx="372.04724"
     inkscape:cy="526.18109"
     inkscape:window-x="0"
     inkscape:window-y="30"
     inkscape:window-maximized="1"
     inkscape:current-layer="g6115" />
  <desc
     id="desc6011">/home/evan/Documents/drawings/mobiusPuzzleGame/square_pieces_01a.dxf - scale = 0.840000, origin = (-125.000000, -125.000000), auto = True</desc>
  <defs
     id="defs6013">
    <marker
       id="DistanceX"
       orient="auto"
       refX="0.0"
       refY="0.0"
       style="overflow:visible">
      <path
         d="M 3,-3 L -3,3 M 0,-5 L  0,5"
         style="stroke:#000000; stroke-width:0.5"
         id="path6016" />
    </marker>
    <pattern
       height="8"
       id="Hatch"
       patternUnits="userSpaceOnUse"
       width="8"
       x="0"
       y="0">
      <path
         d="M8 4 l-4,4"
         linecap="square"
         stroke="#000000"
         stroke-width="0.25"
         id="path6019" />
      <path
         d="M6 2 l-4,4"
         linecap="square"
         stroke="#000000"
         stroke-width="0.25"
         id="path6021" />
      <path
         d="M4 0 l-4,4"
         linecap="square"
         stroke="#000000"
         stroke-width="0.25"
         id="path6023" />
    </pattern>
    <symbol
       id="*Model_Space" />
    <symbol
       id="*Paper_Space" />
    <symbol
       id="*Paper_Space0" />
    <symbol
       id="arc90">
      <path
         d="M 416.692913,1052.362205 A 416.692913,416.692913 -0.000000 0 0 0.000000,635.669291"
         class="shape g1"
         id="path6029" />
      <path
         d="M 327.401575,1052.362205 A 327.401575,327.401575 -0.000000 0 0 -0.000000,724.960630"
         class="shape g1"
         id="path6031" />
    </symbol>
    <symbol
       id="arc180">
      <path
         d="M 327.401575,1052.362205 327.401575,308.267717"
         class="shape g1"
         id="path6034" />
      <path
         d="M 416.692913,1052.362205 416.692913,308.267717"
         class="shape g1"
         id="path6036" />
    </symbol>
    <symbol
       id="arc_90">
      <path
         d="M 441.496063,777.015440 A 119.055118,119.055118 -0.000000 1 0 302.598425,777.015440"
         class="shape g1"
         id="path6039" />
      <path
         d="M 401.811024,680.314961 A 29.763780,29.763780 -0.000000 1 0 342.283465,680.314961 29.763780,29.763780 -0.000000 1 0 401.811024,680.314961 z"
         class="shape g1"
         id="path6041" />
      <path
         d="M 327.401575,825.365680 327.401575,1052.362205"
         class="shape g1"
         id="path6043" />
      <path
         d="M 441.496063,777.015440 A 59.527559,59.527559 -0.000000 0 0 416.692913,825.365680"
         class="shape g1"
         id="path6045" />
      <path
         d="M 416.692913,1052.362205 416.692913,825.365680"
         class="shape g1"
         id="path6047" />
      <path
         d="M 327.401575,825.365680 A 59.527559,59.527559 -0.000000 0 0 302.598425,777.015440"
         class="shape g1"
         id="path6049" />
    </symbol>
  </defs>
  <g
     inkscape:groupmode="layer"
     inkscape:label="tile outline"
     id="g6053">
    <path
       d="M 0.000000,1052.362205 L 744.094488,1052.362205 L 744.094488,308.267717 L 0.000000,308.267717 L 0.000000,1052.362205 z"
       class="shape g1"
       id="path6055" />
  </g>
  <g
     inkscape:groupmode="layer"
     inkscape:label="4.1.0"
     id="g6065">
    <use
       x="0.000000"
       y="0.000000"
       xlink:href="#arc_90"
       id="use6067" />
  </g>
  <g
     inkscape:groupmode="layer"
     inkscape:label="4.2.a"
     id="g6069">
    <path
       d="M 0.000000,635.669291 744.094488,635.669291"
       class="shape"
       id="path6071" />
    <path
       d="M 0.000000,724.960630 744.094488,724.960630"
       class="shape"
       id="path6073" />
  </g>
  <g
     inkscape:groupmode="layer"
     inkscape:label="4.2.b"
     id="g6115">
    <path
       d="M 416.692913,1052.362205 A 416.692913,416.692913 -0.000000 0 0 0.000000,635.669291"
       class="shape"
       id="path6117" />
    <path
       d="M 327.401575,1052.362205 A 327.401575,327.401575 -0.000000 0 0 -0.000000,724.960630"
       class="shape"
       id="path6119" />
  </g>
  <g
     inkscape:groupmode="layer"
     inkscape:label="4.3.0"
     id="g6075">
    <path
       d="M 744.094488,635.669291 A 416.692913,416.692913 -0.000000 0 0 327.401575,1052.362205"
       class="shape"
       id="path6077" />
    <path
       d="M 744.094488,724.960630 A 327.401575,327.401575 -0.000000 0 0 416.692913,1052.362205"
       class="shape"
       id="path6079" />
    <path
       d="M 416.692913,1052.362205 A 416.692913,416.692913 -0.000000 0 0 0.000000,635.669291"
       class="shape"
       id="path6081" />
    <path
       d="M 327.401575,1052.362205 A 327.401575,327.401575 -0.000000 0 0 0.000000,724.960630"
       class="shape"
       id="path6083" />
    <path
       d="M 0.000000,724.960630 744.094488,724.960630"
       class="shape"
       id="path6085" />
    <path
       d="M 0.000000,635.669291 744.094488,635.669291"
       class="shape"
       id="path6087" />
  </g>
  <g
     inkscape:groupmode="layer"
     inkscape:label="4.4.0"
     id="g6089">
    <path
       d="M 416.692913,1052.362205 A 416.692913,416.692913 -0.000000 0 0 0.000000,635.669291"
       class="shape"
       id="path6091" />
    <path
       d="M 327.401575,1052.362205 A 327.401575,327.401575 -0.000000 0 0 -0.000000,724.960630"
       class="shape"
       id="path6093" />
    <path
       d="M 744.094488,635.669291 A 416.692913,416.692913 -0.000000 0 0 327.401575,1052.362205"
       class="shape"
       id="path6095" />
    <path
       d="M 744.094488,724.960630 A 327.401575,327.401575 -0.000000 0 0 416.692913,1052.362205"
       class="shape"
       id="path6097" />
    <path
       d="M 0.000000,724.960630 A 416.692913,416.692913 -0.000000 0 0 416.692913,308.267717"
       class="shape"
       id="path6099" />
    <path
       d="M 0.000000,635.669291 A 327.401575,327.401575 -0.000000 0 0 327.401575,308.267717"
       class="shape"
       id="path6101" />
    <path
       d="M 327.401575,308.267717 A 416.692913,416.692913 -0.000000 0 0 744.094488,724.960630"
       class="shape"
       id="path6103" />
    <path
       d="M 416.692913,308.267717 A 327.401575,327.401575 -0.000000 0 0 744.094488,635.669291"
       class="shape"
       id="path6105" />
    <path
       d="M 327.401575,308.267717 A 416.692913,416.692913 -0.000000 0 0 744.094488,724.960630"
       class="shape"
       id="path6107" />
    <path
       d="M 416.692913,308.267717 A 327.401575,327.401575 -0.000000 0 0 744.094488,635.669291"
       class="shape"
       id="path6109" />
    <path
       d="M 327.401575,308.267717 A 416.692913,416.692913 -0.000000 0 0 744.094488,724.960630"
       class="shape"
       id="path6111" />
    <path
       d="M 416.692913,308.267717 A 327.401575,327.401575 -0.000000 0 0 744.094488,635.669291"
       class="shape"
       id="path6113" />
  </g>
</svg>
