<?xml version="1.0" encoding="UTF-8" standalone="no"?>
<svg
   xmlns:dc="http://purl.org/dc/elements/1.1/"
   xmlns:cc="http://creativecommons.org/ns#"
   xmlns:rdf="http://www.w3.org/1999/02/22-rdf-syntax-ns#"
   xmlns:svg="http://www.w3.org/2000/svg"
   xmlns="http://www.w3.org/2000/svg"
   xmlns:xlink="http://www.w3.org/1999/xlink"
   xmlns:sodipodi="http://sodipodi.sourceforge.net/DTD/sodipodi-0.dtd"
   xmlns:inkscape="http://www.inkscape.org/namespaces/inkscape"
   width="744.094488189"
   height="1052.36220472"
   id="svg6171"
   version="1.1"
   inkscape:version="0.91 r13725"
   sodipodi:docname="triangle_pieces_01a.svg">
  <metadata
     id="metadata6235">
    <rdf:RDF>
      <cc:Work
         rdf:about="">
        <dc:format>image/svg+xml</dc:format>
        <dc:type
           rdf:resource="http://purl.org/dc/dcmitype/StillImage" />
        <dc:title></dc:title>
      </cc:Work>
    </rdf:RDF>
  </metadata>
  <sodipodi:namedview
     pagecolor="#ffffff"
     bordercolor="#666666"
     borderopacity="1"
     objecttolerance="10"
     gridtolerance="10"
     guidetolerance="10"
     inkscape:pageopacity="0"
     inkscape:pageshadow="2"
     inkscape:window-width="2880"
     inkscape:window-height="1590"
     id="namedview6233"
     showgrid="false"
     inkscape:zoom="1.3674"
     inkscape:cx="372.04724"
     inkscape:cy="526.18109"
     inkscape:window-x="0"
     inkscape:window-y="30"
     inkscape:window-maximized="1"
     inkscape:current-layer="g6229" />
  <desc
     id="desc6173">/home/evan/Documents/drawings/mobiusPuzzleGame/triangle_pieces_01a.dxf - scale = 0.258059, origin = (-448.012702, -356.506351), auto = True</desc>
  <defs
     id="defs6175">
    <marker
       id="DistanceX"
       orient="auto"
       refX="0.0"
       refY="0.0"
       style="overflow:visible">
      <path
         d="M 3,-3 L -3,3 M 0,-5 L  0,5"
         style="stroke:#000000; stroke-width:0.5"
         id="path6178" />
    </marker>
    <pattern
       height="8"
       id="Hatch"
       patternUnits="userSpaceOnUse"
       width="8"
       x="0"
       y="0">
      <path
         d="M8 4 l-4,4"
         linecap="square"
         stroke="#000000"
         stroke-width="0.25"
         id="path6181" />
      <path
         d="M6 2 l-4,4"
         linecap="square"
         stroke="#000000"
         stroke-width="0.25"
         id="path6183" />
      <path
         d="M4 0 l-4,4"
         linecap="square"
         stroke="#000000"
         stroke-width="0.25"
         id="path6185" />
    </pattern>
    <symbol
       id="*Model_Space" />
    <symbol
       id="*Paper_Space" />
    <symbol
       id="*Paper_Space0" />
    <symbol
       id="arc_90">
      <path
         d="M 430.991267,756.086215 A 36.575360,36.575360 -0.000000 1 0 388.320015,756.086215"
         style="stroke:#000000;fill:none"
         id="path6191" />
      <path
         d="M 418.799481,726.378506 A 9.143840,9.143840 -0.000000 1 0 400.511801,726.378506 9.143840,9.143840 -0.000000 1 0 418.799481,726.378506 z"
         style="stroke:#000000;fill:none"
         id="path6193" />
      <path
         d="M 395.939881,770.940069 395.939881,840.676504"
         style="stroke:#000000;fill:none"
         id="path6195" />
      <path
         d="M 430.991267,756.086215 A 18.287680,18.287680 -0.000000 0 0 423.371401,770.940069"
         style="stroke:#000000;fill:none"
         id="path6197" />
      <path
         d="M 423.371401,840.676504 423.371401,770.940069"
         style="stroke:#000000;fill:none"
         id="path6199" />
      <path
         d="M 395.939881,770.940069 A 18.287680,18.287680 -0.000000 0 0 388.320015,756.086215"
         style="stroke:#000000;fill:none"
         id="path6201" />
    </symbol>
  </defs>
  <g
     inkscape:groupmode="layer"
     inkscape:label="0"
     id="g6203" />
  <g
     inkscape:groupmode="layer"
     inkscape:label="3.2.0"
     id="g6205">
    <path
       d="M 395.939881,840.676504 A 184.254181,184.254181 -0.000000 0 0 303.812791,681.107703"
       style="stroke:#000000;fill:none"
       id="path6207" />
    <path
       d="M 423.371401,840.676504 A 211.685700,211.685700 -0.000000 0 0 317.528551,657.351310"
       style="stroke:#000000;fill:none"
       id="path6209" />
  </g>
  <g
     inkscape:groupmode="layer"
     inkscape:label="3.3.0"
     id="g6211">
    <path
       d="M 303.812791,681.107703 A 211.685700,211.685700 -0.000000 0 0 515.498491,681.107703"
       style="stroke:#000000;fill:none"
       id="path6213" />
    <path
       d="M 515.498491,681.107703 A 184.254181,184.254181 -0.000000 0 0 423.371401,840.676504"
       style="stroke:#000000;fill:none"
       id="path6215" />
    <path
       d="M 501.782731,657.351310 A 211.685700,211.685700 -0.000000 0 0 395.939881,840.676504"
       style="stroke:#000000;fill:none"
       id="path6217" />
    <path
       d="M 423.371401,840.676504 A 211.685700,211.685700 -0.000000 0 0 317.528551,657.351310"
       style="stroke:#000000;fill:none"
       id="path6219" />
    <path
       d="M 317.528551,657.351310 A 184.254181,184.254181 -0.000000 0 0 501.782731,657.351310"
       style="stroke:#000000;fill:none"
       id="path6221" />
    <path
       d="M 395.939881,840.676504 A 184.254181,184.254181 -0.000000 0 0 303.812791,681.107703"
       style="stroke:#000000;fill:none"
       id="path6223" />
  </g>
  <g
     inkscape:groupmode="layer"
     inkscape:label="tile outline"
     id="g6225">
    <path
       d="M 409.655641,497.782509 L 211.685700,840.676504 L 607.625582,840.676504 L 409.655641,497.782509 z"
       style="stroke:#000000;fill:none"
       id="path6227" />
  </g>
  <g
     inkscape:groupmode="layer"
     inkscape:label="3.1.0"
     id="g6229">
    <use
       x="0.000000"
       y="0.000000"
       xlink:href="#arc_90"
       id="use6231" />
  </g>
</svg>
